<?xml version="1.0" encoding="UTF-8"?>
<svg version="1.1" xmlns="http://www.w3.org/2000/svg" width="512" height="512">
<path d="M0 0 C1.30324219 0.67095703 1.30324219 0.67095703 2.6328125 1.35546875 C13.61160925 7.46754515 20.67325398 16.12475886 25.10546875 27.94921875 C27.99138759 38.09735589 28.13201189 47.69528326 24.96899414 57.74438477 C24.60222061 58.91566422 24.23544708 60.08694366 23.8575592 61.29371643 C23.57456467 62.18679001 23.29157013 63.07986359 23 64 C23.90852345 63.99539104 24.81704689 63.99078207 25.75310135 63.98603344 C47.84419559 63.87568375 69.93524242 63.79290647 92.02655411 63.74093914 C102.70969786 63.71514109 113.39265781 63.67995993 124.07568359 63.62280273 C133.3853946 63.57301684 142.69497253 63.54072064 152.00481296 63.52955753 C156.93584333 63.52303061 161.86649292 63.5076573 166.79740143 63.47134972 C171.43658102 63.43746627 176.0752222 63.42693151 180.71451378 63.43446159 C182.41894899 63.43308361 184.1234018 63.42310542 185.82773018 63.40397263 C188.15227803 63.37915259 190.47478396 63.38505231 192.79937744 63.39872742 C194.10094913 63.39411845 195.40252083 63.38950949 196.74353409 63.38476086 C200 64 200 64 202.41878891 66.34617329 C204.35203052 69.59083066 204.63248597 71.28414491 204 75 C202.1329009 77.30275556 200.64352259 78.67823871 198 80 C195.77046679 80.1065679 193.53768253 80.14671298 191.30563354 80.15821838 C190.26176442 80.16562535 190.26176442 80.16562535 189.19680703 80.17318195 C186.85370065 80.1885989 184.51062177 80.19692888 182.16748047 80.20532227 C180.49232744 80.2148975 178.81717684 80.22490736 177.14202881 80.23532104 C172.58445689 80.26241466 168.02687457 80.28340005 163.46926641 80.30332303 C158.70997046 80.32515515 153.95070674 80.35255738 149.19143677 80.37937927 C140.17461571 80.42934376 131.1577768 80.47426863 122.14092076 80.51740164 C111.87744501 80.56674196 101.61400159 80.62167195 91.35055709 80.67708123 C70.23373483 80.79095892 49.11688172 80.89778532 28 81 C28.42373398 81.42151337 28.84746796 81.84302673 29.28404236 82.27731323 C33.68284238 86.65403688 38.07815578 91.03423929 42.47143555 95.41650391 C44.11279047 97.05282151 45.75504063 98.68824163 47.39819336 100.32275391 C49.7560894 102.66855818 52.11077625 105.01754201 54.46484375 107.3671875 C55.20339096 108.10057343 55.94193817 108.83395935 56.7028656 109.58956909 C57.38349564 110.2701236 58.06412567 110.9506781 58.76538086 111.65185547 C59.3671666 112.25142059 59.96895233 112.85098572 60.588974 113.46871948 C62.62920044 115.68282397 62.98543764 116.83253291 63.25 119.875 C62.96621485 123.42231438 62.67676107 124.66862746 60 127 C56.25997742 128.03889516 54.06620129 128.53815849 50.54414368 126.76042175 C47.97049826 124.97958625 45.87342131 123.11412361 43.66870117 120.89575195 C42.848228 120.07512772 42.02775482 119.25450348 41.18241882 118.40901184 C39.87589104 117.0870002 39.87589104 117.0870002 38.54296875 115.73828125 C37.64000565 114.83248825 36.73704254 113.92669525 35.80671692 112.99345398 C33.41772036 110.59517736 31.03315143 108.19266672 28.65063477 105.78796387 C26.21411123 103.33090897 23.77185094 100.87957074 21.33007812 98.42773438 C16.54809777 93.62372406 11.77187553 88.81404655 7 84 C6.12174561 84.41717285 5.24349121 84.8343457 4.33862305 85.26416016 C3.17886963 85.80862793 2.01911621 86.3530957 0.82421875 86.9140625 C-0.32216064 87.45498535 -1.46854004 87.9959082 -2.6496582 88.55322266 C-14.47835392 93.66120567 -26.91077823 92.91887452 -39 89 C-43.68993137 86.85521431 -48.32806437 84.67193563 -52 81 C-80.05 80.67 -108.1 80.34 -137 80 C-137 180.32 -137 280.64 -137 384 C-109.94 384 -82.88 384 -55 384 C-51 386 -51 386 -49.6875 387.6875 C-48.68141051 391.07161918 -49.19557601 393.59666774 -50 397 C-51.17706776 398.69229603 -51.17706776 398.69229603 -53 400 C-55.68051434 400.36914349 -55.68051434 400.36914349 -58.97941589 400.36076355 C-60.85354408 400.36694954 -60.85354408 400.36694954 -62.76553345 400.3732605 C-64.15252901 400.36264306 -65.53952239 400.35173863 -66.92651367 400.34057617 C-68.38506554 400.33973008 -69.84361868 400.3402047 -71.3021698 400.34190369 C-75.26478724 400.34276576 -79.22713323 400.32510583 -83.18968749 400.30418181 C-87.32967621 400.2854503 -91.46967088 400.28366736 -95.60969543 400.28010559 C-103.45075082 400.27077474 -111.29168099 400.24614693 -119.13268119 400.21605712 C-128.05880269 400.18254543 -136.98493011 400.16603524 -145.91109884 400.15097082 C-164.27413693 400.11959825 -182.6370584 400.06681758 -201 400 C-200.24084256 402.36943407 -199.47416221 404.7359937 -198.703125 407.1015625 C-198.49187988 407.76357666 -198.28063477 408.42559082 -198.06298828 409.10766602 C-193.00577134 424.53501883 -183.67366191 434.31513039 -169.8203125 442.2734375 C-160.54663509 446.7910917 -151.28113554 447.43152812 -141.11116028 447.36076355 C-139.73635594 447.36207437 -138.36155234 447.36470587 -136.98675269 447.36853105 C-133.23758682 447.37519368 -129.4886813 447.36330219 -125.73954856 447.34819686 C-121.68585316 447.33517927 -117.63217113 447.33962999 -113.57846069 447.34190369 C-106.56464503 447.34347282 -99.55091343 447.33410138 -92.53711891 447.31719017 C-82.39650141 447.29275575 -72.25592434 447.28499036 -62.11528059 447.2812262 C-45.66073371 447.27466867 -29.20623158 447.2547265 -12.75170898 447.22631836 C3.22745541 447.19875968 19.20660763 447.17753496 35.18579102 447.16479492 C36.17159659 447.16400675 37.15740217 447.16321858 38.17308065 447.16240653 C43.11883118 447.15849127 48.06458179 447.15470018 53.01033247 447.15097082 C94.00691943 447.11989668 135.00345715 447.06707994 176 447 C174.58750977 445.84467773 174.58750977 445.84467773 173.14648438 444.66601562 C161.84620689 435.42314664 154.50031101 420.23422673 152 406 C151.98237681 404.00007765 151.98041163 401.99990407 152 400 C151.09147655 400.00368717 150.18295311 400.00737434 149.24689865 400.01117325 C127.15578401 400.09945308 105.06469971 400.16567493 82.97344589 400.20724869 C72.29033835 400.22788706 61.60734845 400.25603203 50.92431641 400.30175781 C41.61460584 400.34158653 32.30498044 400.36742353 22.99518704 400.37635398 C18.06421698 400.38157545 13.13349064 400.39387425 8.20259857 400.42292023 C3.56347014 400.45002669 -1.07531368 400.45845468 -5.71451378 400.45243073 C-7.41893828 400.4535331 -9.12337405 400.46151542 -10.82773018 400.4768219 C-13.15203857 400.49667588 -15.47503985 400.49195695 -17.79937744 400.48101807 C-19.75173498 400.48654882 -19.75173498 400.48654882 -21.74353409 400.49219131 C-25 400 -25 400 -27.42269516 398.18868637 C-29.71054976 395.01403296 -29.47720043 392.8176034 -29 389 C-27.23984869 385.8149643 -26.50109084 385.16703028 -23 384 C-20.55309398 383.90039827 -18.13458771 383.85654535 -15.68753052 383.85955811 C-14.93712144 383.85658698 -14.18671236 383.85361586 -13.41356361 383.8505547 C-10.89174604 383.84186291 -8.36997591 383.84035906 -5.84814453 383.83886719 C-4.04302875 383.8342394 -2.23791395 383.82921479 -0.43280029 383.82382202 C4.47629175 383.8106933 9.38537012 383.80425228 14.29447699 383.79981136 C17.36012933 383.79688174 20.42577792 383.79277718 23.49142838 383.78830719 C33.07931656 383.77463178 42.66719619 383.76496501 52.25509346 383.7611053 C63.33028642 383.75662257 74.40535608 383.73906488 85.48051155 383.7101047 C94.03684521 383.68850591 102.59314414 383.678402 111.14950478 383.67706418 C116.26204993 383.67601497 121.37447919 383.67008242 126.4869957 383.65224457 C131.29521762 383.63579478 136.10323614 383.63359331 140.91147614 383.64238358 C142.67674681 383.64315558 144.44202829 383.63878981 146.20727158 383.62892532 C148.61627908 383.61625221 151.0245611 383.62205697 153.43356323 383.63250732 C154.48254911 383.62042272 154.48254911 383.62042272 155.55272663 383.60809398 C159.85622025 383.65178761 162.57646553 384.36230286 166 387 C166.8203125 388.98828125 166.8203125 388.98828125 167.125 391.3125 C167.33769531 392.64087891 167.33769531 392.64087891 167.5546875 393.99609375 C167.70164062 394.98738281 167.84859375 395.97867187 168 397 C170.21789166 410.01872021 174.04388789 420.19092484 183 430 C183 430.66 183 431.32 183 432 C183.58652344 432.27199219 184.17304688 432.54398437 184.77734375 432.82421875 C186.95688333 433.97719136 188.65909709 435.25442289 190.5625 436.8125 C203.22832872 446.45928574 217.58624439 448.28011437 233 447 C246.27896386 444.66077324 258.6002937 437.56989064 267 427 C275.3793392 414.57799715 278.45833849 403.46566432 278.39872742 388.45283508 C278.40417774 387.11515001 278.41093379 385.77746974 278.41886932 384.4397971 C278.43677816 380.79328612 278.43635201 377.14697999 278.43273985 373.50043547 C278.4321131 369.55713704 278.44876312 365.61390563 278.46325684 361.67063904 C278.48599501 354.84838163 278.49791967 348.02617512 278.50238609 341.20388222 C278.5088595 331.34014828 278.53181777 321.47650616 278.55872939 311.61280932 C278.60195287 295.6075271 278.63194495 279.60224875 278.65356445 263.59692383 C278.67458746 248.05426123 278.70187409 232.51163032 278.73754883 216.96899414 C278.73974765 216.01007152 278.74194648 215.05114891 278.74421193 214.06316803 C278.75528192 209.25227382 278.76647466 204.44137991 278.77772844 199.63048613 C278.87085066 159.75368505 278.94247775 119.8768674 279 80 C278.38469925 80.00888245 277.7693985 80.01776489 277.13545227 80.0269165 C270.72784724 80.11545271 264.32041615 80.17576044 257.91235352 80.21972656 C255.52133119 80.23983418 253.13035799 80.2671243 250.73950195 80.30175781 C247.30147169 80.35031151 243.86409196 80.37297774 240.42578125 80.390625 C238.82395744 80.42159271 238.82395744 80.42159271 237.18977356 80.45318604 C229.77971612 80.45542332 229.77971612 80.45542332 225.84838867 78.15917969 C223.45495275 75.36330764 223 73.67183277 223 70 C225.13043478 65.43478261 225.13043478 65.43478261 228 64 C229.97998046 63.8881534 231.96371939 63.84070182 233.94677734 63.82299805 C235.19502289 63.81016281 236.44326843 63.79732758 237.7293396 63.78410339 C239.09820154 63.77593662 240.46706796 63.76849277 241.8359375 63.76171875 C242.52416218 63.75764322 243.21238686 63.7535677 243.92146683 63.74936867 C247.56352692 63.7285113 251.20554936 63.71420768 254.84765625 63.70483398 C258.60955699 63.69376449 262.37086703 63.65935848 266.13255882 63.61966228 C269.02535097 63.59352042 271.91800176 63.58514443 274.81090164 63.58155251 C276.19759744 63.57668088 277.58428669 63.56505032 278.97086716 63.54651451 C280.91191119 63.52217771 282.85324228 63.5255025 284.79443359 63.5300293 C285.89870697 63.52416306 287.00298035 63.51829681 288.14071655 63.51225281 C291.75793361 64.12929113 292.734137 65.15583294 295 68 C295.50139666 70.6339758 295.50139666 70.6339758 295.50336456 73.69772816 C295.51379555 74.86686278 295.52422654 76.03599741 295.53497362 77.24056035 C295.52605073 78.52603582 295.51712785 79.81151128 295.50793457 81.13594055 C295.51254245 82.51464201 295.51889461 83.89333856 295.52684355 85.27202481 C295.54357819 89.06509021 295.53527176 92.85775428 295.52289867 96.65082133 C295.51386635 100.74040199 295.52780949 104.82991254 295.53881836 108.91947937 C295.55663291 116.93581052 295.55274905 124.95199209 295.5411678 132.96832917 C295.53213834 139.48842709 295.53090739 146.00848306 295.53526306 152.52858543 C295.53587599 153.45623401 295.53648893 154.38388258 295.53712043 155.33964172 C295.53839935 157.22422162 295.5396962 159.10880152 295.5410108 160.9933814 C295.55242698 178.68184724 295.53929026 196.37023027 295.51780933 214.05868252 C295.49996985 229.21697908 295.5030144 244.37515297 295.52148438 259.53344727 C295.54292882 277.14107904 295.55129407 294.74863796 295.53903532 312.35628098 C295.53776117 314.23733436 295.53650369 316.11838775 295.53526306 317.99944115 C295.53464596 318.92489156 295.53402886 319.85034198 295.53339306 320.80383635 C295.52994843 327.3060688 295.53575 333.80825486 295.54518127 340.31048012 C295.55644382 348.24990605 295.55327366 356.18917396 295.5320583 364.12858198 C295.52159978 368.17501382 295.51733587 372.221183 295.53065491 376.26761246 C295.54269576 379.98221904 295.53582708 383.69632301 295.5147447 387.41088488 C295.50825656 389.37001151 295.52111035 391.32917387 295.53497362 393.28826219 C295.35930955 413.46026216 287.49887843 430.09187182 273.75 444.625 C268.98673536 449.27466038 263.75848475 452.70203722 258 456 C257.35675781 456.38929688 256.71351563 456.77859375 256.05078125 457.1796875 C244.4290326 463.68383317 231.41508133 464.58989065 218.4152832 464.50793457 C216.79610035 464.51255501 215.1769217 464.51891553 213.55775166 464.52684355 C209.1510676 464.54340321 204.74473404 464.53535204 200.33804941 464.52289867 C195.56904235 464.51379523 190.8000928 464.527844 186.03109741 464.53881836 C176.70548994 464.55655197 167.38001166 464.55278666 158.05439925 464.5411678 C150.47144627 464.53211338 142.88852935 464.53091814 135.30557251 464.53526306 C134.2239941 464.53587599 133.14241568 464.53648893 132.02806216 464.53712043 C129.83046713 464.53839941 127.63287211 464.53969626 125.4352771 464.5410108 C104.8558417 464.55240149 84.27647772 464.53932663 63.69705403 464.51780933 C46.06069559 464.49993974 28.42444248 464.50304427 10.78808594 464.52148438 C-9.72056339 464.5429178 -30.22915022 464.55130299 -50.73780918 464.53903532 C-52.92706361 464.5377612 -55.11631806 464.53650372 -57.30557251 464.53526306 C-58.9210661 464.53433741 -58.9210661 464.53433741 -60.56919593 464.53339306 C-68.13805472 464.52994757 -75.70687369 464.53575118 -83.27572632 464.54518127 C-92.50677984 464.55643013 -101.7376974 464.55330066 -110.96873546 464.5320583 C-115.67344308 464.52158667 -120.37792449 464.51735933 -125.08263016 464.53065491 C-129.39816031 464.54266571 -133.71325677 464.53587483 -138.02874815 464.5147447 C-139.581042 464.51031513 -141.13337328 464.51246171 -142.6856426 464.52224785 C-164.70373606 464.65029654 -182.0337161 457.45230358 -198.0625 442.375 C-210.01732007 430.06747561 -217.05444873 413.66406371 -217.375 396.5 C-217.41238281 395.74074219 -217.44976562 394.98148437 -217.48828125 394.19921875 C-217.49988281 393.46316406 -217.51148438 392.72710937 -217.5234375 391.96875 C-217.54325684 391.30294922 -217.56307617 390.63714844 -217.58349609 389.95117188 C-216.65153075 386.83474216 -214.6455618 385.77746971 -212 384 C-209.15885925 383.51898193 -209.15885925 383.51898193 -206.01635742 383.54589844 C-204.83551071 383.54620056 -203.654664 383.54650269 -202.43803406 383.54681396 C-201.17328751 383.56745911 -199.90854095 383.58810425 -198.60546875 383.609375 C-196.65173088 383.61786469 -196.65173088 383.61786469 -194.65852356 383.62652588 C-191.20753899 383.64174711 -187.75723538 383.68099684 -184.30651855 383.7253418 C-180.78061127 383.76637142 -177.25459319 383.78455318 -173.72851562 383.8046875 C-166.81873193 383.84749585 -159.90939872 383.91570349 -153 384 C-153.00151888 383.33287247 -153.00303776 382.66574494 -153.00460267 381.97840142 C-153.09405997 342.46384481 -153.16271837 302.94930123 -153.20426132 263.43466391 C-153.20926431 258.69309608 -153.21444159 253.95152846 -153.21972656 249.20996094 C-153.2207758 248.26597591 -153.22182505 247.32199089 -153.22290608 246.34940025 C-153.24032476 231.05226907 -153.27187049 215.75519784 -153.30861118 200.45810226 C-153.34597994 184.76899451 -153.36822723 169.07991823 -153.37635398 153.39076781 C-153.38185021 143.7049402 -153.39922705 134.01928203 -153.43166587 124.33350655 C-153.4527636 117.69710259 -153.45921083 111.06078658 -153.45400551 104.42435148 C-153.4514363 100.59193534 -153.45545254 96.75981586 -153.4768219 92.92745209 C-153.49979493 88.77730554 -153.49198104 84.62779542 -153.48101807 80.4776001 C-153.49266943 79.2597118 -153.5043208 78.04182351 -153.51632524 76.7870295 C-153.50836104 75.67831231 -153.50039685 74.56959511 -153.49219131 73.42728043 C-153.4937102 72.46886631 -153.49522908 71.5104522 -153.49679399 70.52299523 C-152.8462882 67.2193663 -151.64167233 66.03159741 -149 64 C-146.145965 63.62592676 -143.68433237 63.49275602 -140.83496094 63.54589844 C-140.0150769 63.54531433 -139.19519287 63.54473022 -138.35046387 63.54412842 C-135.64466789 63.5469117 -132.93997815 63.57801451 -130.234375 63.609375 C-128.3567973 63.61683654 -126.47921181 63.62252988 -124.60162354 63.62652588 C-119.66290742 63.64178909 -114.7246628 63.68107687 -109.78613281 63.7253418 C-104.74550759 63.76627965 -99.70480609 63.78453372 -94.6640625 63.8046875 C-84.77583465 63.84757041 -74.88795655 63.91583012 -65 64 C-65.20496094 63.46890625 -65.40992188 62.9378125 -65.62109375 62.390625 C-65.89050781 61.68421875 -66.15992188 60.9778125 -66.4375 60.25 C-66.70433594 59.55390625 -66.97117188 58.8578125 -67.24609375 58.140625 C-71.19938484 46.91573631 -69.95011607 33.65351068 -65 23 C-59.0566674 10.95508039 -50.1678642 2.69301548 -37.75 -2.3125 C-25.85256298 -6.01627645 -11.10612949 -5.8807866 0 0 Z M-47 24 C-52.6300425 33.06987754 -54.80781014 42.20245748 -52.3515625 52.796875 C-49.26642683 61.28759025 -43.09081966 68.81236873 -35 73 C-26.47054533 76.42510914 -18.62031475 77.00419853 -9.921875 73.90234375 C-0.67625701 69.73252357 5.64682342 64.03489242 9.5 54.5625 C12.19120399 45.98652995 11.79290663 38.15832746 8 30 C3.62940808 21.80343821 -2.62695884 15.42553715 -11.609375 12.47265625 C-25.63591058 9.69943598 -37.6283065 13.1495383 -47 24 Z " fill="#526D82" transform="translate(217,26)"/>
<path d="M0 0 C17.52327467 3.58021731 35.72553199 11.55918755 46.375 26.4375 C52.43980311 36.36019176 53.61485732 46.57044477 51.4140625 58.05859375 C48.49738632 67.49096395 42.13083413 74.51973846 33.625 79.375 C21.77840006 85.20767925 6.38724823 90.77848548 -7 88 C-10.44139462 85.30625852 -11.85142551 83.82576139 -12.63491821 79.47119141 C-12.6644275 78.09829299 -12.66672614 76.72463593 -12.64697266 75.3515625 C-12.65573425 74.59808533 -12.66449585 73.84460815 -12.67352295 73.06829834 C-12.69546498 70.58660681 -12.68098439 68.10670848 -12.6640625 65.625 C-12.66743217 63.89534159 -12.67228605 62.16568548 -12.67855835 60.43603516 C-12.68592258 56.81454886 -12.67523913 53.19368003 -12.65185547 49.57226562 C-12.62336739 44.93481295 -12.63977385 40.29880708 -12.66971779 35.66140747 C-12.68780326 32.0907912 -12.68202713 28.52051682 -12.66907883 24.94989014 C-12.66574824 23.24029366 -12.66981971 21.53066594 -12.68147659 19.82110596 C-12.69420671 17.42938273 -12.67478212 15.03998768 -12.64697266 12.6484375 C-12.65709381 11.9449115 -12.66721497 11.2413855 -12.67764282 10.51654053 C-12.59560855 6.69995456 -12.06350877 5.08033285 -9.66708374 2.04907227 C-6.14262893 -0.65870271 -4.37204279 -0.51517702 0 0 Z M4 18 C4 35.49 4 52.98 4 71 C15.13301591 69.88669841 25.33082594 67.72312489 33 59 C36.53434847 53.9835054 36.82689917 48.94448627 36 43 C34.24587006 37.57728646 31.30952073 33.72185881 27 30 C26.47019531 29.52949219 25.94039063 29.05898437 25.39453125 28.57421875 C20.40998785 24.46117334 10.72095254 18 4 18 Z " fill="#526D82" transform="translate(308,210)"/>
<path d="M0 0 C9.4992132 6.58278809 13.93261716 15.34283438 16.5625 26.35546875 C18.75743038 39.62303897 16.35711881 53.1033533 8.50390625 64.09375 C3.68904 70.05395395 -2.34591562 74.54485088 -10 76 C-19.7041384 76.93220857 -26.59401358 74.95841809 -34.1875 68.875 C-42.98306798 60.64010568 -46.896791 50.06050714 -47.40234375 38.18432617 C-47.6243403 25.18057009 -44.15005839 13.59508277 -35.1171875 4 C-24.98763572 -5.53369579 -12.2133868 -6.87763808 0 0 Z M-26.75 19.3125 C-31.33065781 26.29395275 -31.84075631 33.85192957 -31 42 C-29.19071747 48.97307267 -26.0432689 55.13058336 -20.0625 59.375 C-15.7855929 60.67103246 -12.96273632 60.47154432 -8.9375 58.5 C-2.84914927 53.31842491 0.47256938 46.65104241 1.21875 38.65625 C1.53422416 30.13844779 -0.5623797 22.68050495 -6 16 C-9.05145984 13.47922883 -11.08982194 12.15169634 -15 11.5 C-20.27631353 12.37938559 -23.56464141 15.16499497 -26.75 19.3125 Z " fill="#526D82" transform="translate(247,222)"/>
<path d="M0 0 C8.32427957 5.76884816 13.92930072 14.18046461 16.53125 23.96875 C18.67103677 37.80603779 17.40069547 50.65391924 9.796875 62.60546875 C5.02298902 68.96719072 -0.99769313 74.50681593 -9 76 C-18.28355244 77.10451904 -26.30801844 75.11968752 -33.75 69.375 C-42.78065269 60.91941246 -46.80323048 48.51970184 -47.25 36.4375 C-47.08154825 24.00950448 -43.04667722 12.82142799 -34.7421875 3.5703125 C-24.9488382 -5.25687678 -11.27595486 -6.98528821 0 0 Z M-25 17 C-30.04928046 24.91789481 -32.36301428 33.15273139 -30.50390625 42.4921875 C-28.68407022 49.25745363 -26.10175978 54.53449864 -20.5625 58.9375 C-17.37177433 60.26048381 -15.42936258 60.48990894 -12 60 C-5.78506834 56.64393691 -1.84723633 52.23066584 0.45703125 45.49609375 C2.40301495 36.55016868 1.97759785 26.86316182 -3 19 C-6.32313329 15.3808192 -9.7178916 12.31843373 -14.6875 11.625 C-19.24333328 12.14075471 -21.84714776 13.69281234 -25 17 Z " fill="#526D82" transform="translate(423,222)"/>
<path d="M0 0 C0.67861399 -0.00709439 1.35722797 -0.01418877 2.05640602 -0.02149814 C4.3238297 -0.03906043 6.58953498 -0.02098503 8.85693359 -0.00291443 C10.48501363 -0.00805399 12.1130881 -0.01533555 13.7411499 -0.02459717 C18.15861353 -0.04311494 22.57547376 -0.03017045 26.99291229 -0.01050687 C31.61637577 0.00587794 36.23980097 -0.00293303 40.86328125 -0.00802612 C48.62753946 -0.01254727 56.39155678 0.00332404 64.15576172 0.03126526 C73.1314574 0.0633173 82.10671861 0.06330152 91.08244514 0.04605049 C99.71784028 0.0301851 108.35307618 0.03691903 116.98846436 0.0539875 C120.66302735 0.06085898 124.33746273 0.05982457 128.01202393 0.05244255 C132.33942879 0.04477972 136.66633939 0.05690551 140.99365997 0.08429146 C142.58153059 0.09117644 144.16944735 0.09127201 145.75731659 0.08407593 C147.92567613 0.07538166 150.09251015 0.09133381 152.26074219 0.11352539 C154.08029922 0.11773577 154.08029922 0.11773577 155.93661499 0.12203121 C159.74528585 0.72564297 161.41779673 1.93762602 164.13037109 4.62818909 C164.75927734 6.62818909 164.75927734 6.62818909 164.69287109 8.62818909 C164.69416016 9.28818909 164.69544922 9.94818909 164.69677734 10.62818909 C163.86247604 13.57413578 162.51591452 14.72585363 160.13037109 16.62818909 C157.02563477 17.13434696 157.02563477 17.13434696 153.29833984 17.14285278 C152.26839149 17.15327108 152.26839149 17.15327108 151.21763611 17.16389984 C148.9173838 17.18219302 146.61816017 17.17189999 144.31787109 17.16163635 C142.66861193 17.16869366 141.01935925 17.17743788 139.37011719 17.18774414 C134.89078358 17.21026794 130.4118028 17.20729168 125.93243408 17.19842267 C122.19465224 17.19331724 118.45693697 17.20060163 114.71916199 17.20789474 C105.90304765 17.22490289 97.08710636 17.22131828 88.27099609 17.2046051 C79.17085851 17.18767678 70.07120034 17.20352591 60.97111511 17.23582798 C53.16123399 17.26250168 45.35150231 17.26980609 37.5415802 17.2613129 C32.87559367 17.25637791 28.20989575 17.25863026 23.54394531 17.27910042 C19.15741092 17.2974232 14.77156778 17.29154107 10.3850708 17.26690102 C8.7741938 17.2618825 7.16326443 17.26540987 5.5524292 17.27804947 C3.35495372 17.29392977 1.15976873 17.27908169 -1.03759766 17.25637817 C-2.26760498 17.25579186 -3.4976123 17.25520555 -4.76489258 17.25460148 C-7.86962891 16.62818909 -7.86962891 16.62818909 -10.26147461 14.27642727 C-12.25317267 10.99658598 -12.5770001 9.40083548 -11.86962891 5.62818909 C-8.18553612 0.99511159 -5.85957543 0.00283217 0 0 Z " fill="#526D82" transform="translate(219.86962890625,321.37181091308594)"/>
<path d="M0 0 C1.17965332 -0.00619858 2.35930664 -0.01239716 3.57470703 -0.01878357 C6.06607234 -0.02588004 8.55748509 -0.02271086 11.04882812 -0.01000977 C14.8615638 0.00385738 18.67184648 -0.03022425 22.484375 -0.06835938 C24.9062506 -0.06931055 27.32812927 -0.06745183 29.75 -0.0625 C30.88969238 -0.07575821 32.02938477 -0.08901642 33.20361328 -0.10267639 C41.08628186 -0.00987727 41.08628186 -0.00987727 45.09375 2.91821289 C46.875 5.56640625 46.875 5.56640625 47.5 8.56640625 C46.63328572 12.7266348 45.25712544 14.00080411 41.875 16.56640625 C38.57976357 17.16921131 35.39819519 17.0405917 32.0625 16.87890625 C31.17884766 16.85634766 30.29519531 16.83378906 29.38476562 16.81054688 C27.2141109 16.75188053 25.0443331 16.66220604 22.875 16.56640625 C22.89165459 17.6584864 22.89165459 17.6584864 22.90864563 18.77262878 C23.00894863 25.64336752 23.08501607 32.51399643 23.13406086 39.38527966 C23.16012388 42.9177347 23.19545866 46.44958338 23.25219727 49.98168945 C23.31706064 54.04514286 23.34120732 58.10796223 23.36328125 62.171875 C23.38908768 63.43662155 23.4148941 64.7013681 23.44148254 66.00444031 C23.44460717 75.77447398 23.44460717 75.77447398 20.53198242 78.8684082 C17.25051428 80.96549641 15.69955455 81.28351023 11.875 80.56640625 C9.22297668 78.90386963 9.22297668 78.90386963 6.875 76.56640625 C6.27372742 73.80755615 6.27372742 73.80755615 6.30737305 70.60449219 C6.3077507 69.40354919 6.30812836 68.2026062 6.30851746 66.965271 C6.33432388 65.67348938 6.36013031 64.38170776 6.38671875 63.05078125 C6.39604908 61.7112968 6.40316416 60.37179524 6.40815735 59.0322876 C6.42721078 55.51371814 6.47629436 51.9961875 6.53167725 48.47802734 C6.58290722 44.8852341 6.6056792 41.29227229 6.63085938 37.69921875 C6.68441685 30.65452399 6.76970769 23.61053308 6.875 16.56640625 C4.90466797 16.63601562 4.90466797 16.63601562 2.89453125 16.70703125 C1.15887696 16.74455891 -0.57680199 16.780958 -2.3125 16.81640625 C-3.17681641 16.84992188 -4.04113281 16.8834375 -4.93164062 16.91796875 C-9.1930496 16.9832777 -11.49018848 16.95712159 -15.19677734 14.67578125 C-17.2599255 12.41880479 -17.80878183 11.57603611 -17.75 8.56640625 C-17.76289063 7.90640625 -17.77578125 7.24640625 -17.7890625 6.56640625 C-15.20564624 -1.21423566 -6.64919283 -0.02893687 0 0 Z " fill="#526D82" transform="translate(153.125,217.43359375)"/>
<path d="M0 0 C0.90562683 -0.00571014 1.81125366 -0.01142029 2.74432373 -0.01730347 C4.23118179 -0.01898026 4.23118179 -0.01898026 5.74807739 -0.02069092 C6.79386963 -0.02565582 7.83966187 -0.03062073 8.91714478 -0.03573608 C12.3830938 -0.05036329 15.84899708 -0.05716032 19.31497192 -0.06268311 C21.72009279 -0.06843367 24.12521364 -0.07419141 26.53033447 -0.07995605 C31.57589939 -0.09046734 36.62144837 -0.09630932 41.66702271 -0.09979248 C48.13584376 -0.10528039 54.60445467 -0.12931442 61.07320976 -0.15776443 C66.04199848 -0.17637622 71.0107364 -0.18159562 75.97955704 -0.18312836 C78.36460648 -0.18615822 80.74965496 -0.1941979 83.13467026 -0.20731354 C86.469511 -0.22434471 89.80383595 -0.22250083 93.13870239 -0.21600342 C94.12589264 -0.2252182 95.11308289 -0.23443298 96.13018799 -0.243927 C101.06064583 -0.21379479 104.62043051 -0.17542134 108.57278442 3.14044189 C110.11865318 6.23217941 109.86637964 8.73473742 109.57278442 12.14044189 C108.22024536 14.33366394 108.22024536 14.33366394 105.57278442 16.14044189 C102.02075478 16.75144588 98.49768169 16.69675269 94.90090942 16.67388916 C93.81435059 16.68250473 92.72779175 16.6911203 91.60830688 16.69999695 C88.01289116 16.72271945 84.41825082 16.71590644 80.82278442 16.70684814 C78.32701383 16.7120807 75.83124521 16.71835582 73.33547974 16.72563171 C68.10330911 16.73604738 62.87134051 16.73178559 57.63919067 16.71685791 C51.59273171 16.69992996 45.54699434 16.7157802 39.50061417 16.74808079 C33.6806436 16.7779928 27.86095277 16.77996256 22.04092407 16.7705822 C19.56573549 16.76976068 17.09053208 16.77666212 14.61538696 16.79135323 C11.15793899 16.80872852 7.70204421 16.79431329 4.24465942 16.77154541 C3.21804199 16.78323761 2.19142456 16.79492981 1.13369751 16.80697632 C-5.78233213 16.71408292 -5.78233213 16.71408292 -9.06686401 13.79240417 C-10.71834808 10.57288831 -10.95939026 8.71361476 -10.42721558 5.14044189 C-7.84453537 0.59000534 -4.99467907 0.01887457 0 0 Z " fill="#526D82" transform="translate(234.42721557617188,361.85955810546875)"/>
</svg>
